HIERARCHY
ROOT Hips
{
  OFFSET 263.056 91.6644 -274.608
  CHANNELS 6 Xposition Yposition Zposition Zrotation Xrotation Yrotation
  JOINT LeftUpLeg
  {
    OFFSET 8.64259 1.95398 -2.38835
    CHANNELS 3 Zrotation Xrotation Yrotation
    JOINT LeftLeg
    {
      OFFSET 43.7702 0 0
      CHANNELS 3 Zrotation Xrotation Yrotation
      JOINT LeftFoot
      {
        OFFSET 40.6238 0 0
        CHANNELS 3 Zrotation Xrotation Yrotation
        JOINT LeftToeBase
        {
          OFFSET 12.7242 0 0
          CHANNELS 3 Zrotation Xrotation Yrotation
          End Site
          {
            OFFSET 0 0 0
          }
        }
      }
    }
  }
  JOINT RightUpLeg
  {
    OFFSET -8.2249 1.95398 -2.59336
    CHANNELS 3 Zrotation Xrotation Yrotation
    JOINT RightLeg
    {
      OFFSET 43.5653 0 0
      CHANNELS 3 Zrotation Xrotation Yrotation
      JOINT RightFoot
      {
        OFFSET 40.6238 0 0
        CHANNELS 3 Zrotation Xrotation Yrotation
        JOINT RightToeBase
        {
          OFFSET 12.7242 0 0
          CHANNELS 3 Zrotation Xrotation Yrotation
          End Site
          {
            OFFSET 0 0 0
          }
        }
      }
    }
  }
  JOINT Spine
  {
    OFFSET 0.165834 0.87714 6.61349
    CHANNELS 3 Zrotation Xrotation Yrotation
    JOINT Spine1
    {
      OFFSET 7.38963 1.71661e-005 0
      CHANNELS 3 Zrotation Xrotation Yrotation
      JOINT Spine2
      {
        OFFSET 11.9445 1.14441e-005 0
        CHANNELS 3 Zrotation Xrotation Yrotation
        JOINT Spine3
        {
          OFFSET 14.7254 4.19617e-005 0
          CHANNELS 3 Zrotation Xrotation Yrotation
          JOINT Spine4
          {
            OFFSET 10.9679 0 0
            CHANNELS 3 Zrotation Xrotation Yrotation
            JOINT RightShoulder
            {
              OFFSET 2.46616 -1.6653 3.69651
              CHANNELS 3 Zrotation Xrotation Yrotation
              JOINT RightArm
              {
                OFFSET 13.0012 0 0
                CHANNELS 3 Zrotation Xrotation Yrotation
                JOINT RightForeArm
                {
                  OFFSET 28.7848 1.52588e-005 0
                  CHANNELS 3 Zrotation Xrotation Yrotation
                  JOINT RightHand
                  {
                    OFFSET 26.5688 1.52588e-005 0
                    CHANNELS 3 Zrotation Xrotation Yrotation
                    End Site
                    {
                      OFFSET 0 0 0
                    }
                  }
                }
              }
            }
            JOINT LeftShoulder
            {
              OFFSET 2.38034 -1.29275 -3.7523
              CHANNELS 3 Zrotation Xrotation Yrotation
              JOINT LeftArm
              {
                OFFSET 16.3182 6.10352e-005 0
                CHANNELS 3 Zrotation Xrotation Yrotation
                JOINT LeftForeArm
                {
                  OFFSET 27.0901 0 0
                  CHANNELS 3 Zrotation Xrotation Yrotation
                  JOINT LeftHand
                  {
                    OFFSET 24.5451 1.52588e-005 0
                    CHANNELS 3 Zrotation Xrotation Yrotation
                    End Site
                    {
                      OFFSET 0 0 0
                    }
                  }
                }
              }
            }
            JOINT Neck
            {
              OFFSET 5.0226 -0.0266342 0
              CHANNELS 3 Zrotation Xrotation Yrotation
              JOINT Head
              {
                OFFSET 6.69364 2.86102e-005 0
                CHANNELS 3 Zrotation Xrotation Yrotation
                End Site
                {
                  OFFSET 0 0 0
                }
              }
            }
          }
        }
      }
    }
  }
}
MOTION
Frames:	9
Frame Time:	0.0416667
-265.888 91.2497 -263.907 96.0177 -45.0582 94.1732 -166.268 -15.0751 86.1912 -13.7299 10.8495 -4.2029 57.2832 12.5425 23.7308 57.9053 29.6597 -5.07436 -174.011 39.0136 98.4282 -37.7778 0.416866 -5.76366 73.4161 -2.46807 -1.19216 45.3183 1.30497 3.49499 0.213724 7.79074 -89.2685 11.2857 0.766013 1.38045 -0.385712 0.826035 1.34539 -22.9154 0.31578 1.54681 -2.90277 0.315778 1.5468 79.9666 -54.7969 -114.109 32.6899 -5.72349 32.2589 -176.569 -29.4012 -157.354 -68.6659 -17.8022 25.306 -98.5622 -39.6058 62.0767 -19.2272 -3.33209 -6.56816 12.7139 -3.3937 -93.8301 20.2713 2.10436 6.56042 5.98896 0.214225 -2.88134 2.56577 0.711352 -0.94546 
-263.599 87.7684 -261.413 98.2369 -39.6674 92.5896 -167.415 -14.4329 85.5753 -25.2139 11.8758 -4.82427 60.0802 17.5826 28.7308 58.4114 31.9485 -0.657773 -173.098 36.5592 93.1621 -27.5654 -1.03252 -5.7875 69.8287 -2.32097 -1.13624 47.9573 1.69498 4.84982 -0.251195 8.08673 -89.1281 10.6968 -0.0985697 1.74156 -0.975383 -0.0218338 1.7442 -23.5014 -0.617329 1.63149 -3.48876 -0.617314 1.63149 80.8707 -55.6241 -112.545 32.198 -6.60585 26.5053 -175.966 -32.0967 -160.225 -70.6935 -17.576 24.2711 -101.079 -40.9573 58.6625 -21.1116 0.160678 -6.55938 10.511 -3.37249 -82.3966 18.6189 1.6539 5.03398 8.00205 -0.802493 -2.60606 1.73322 -0.276141 -0.748225 
-258.74 86.8992 -257.221 96.5686 -30.6374 90.3418 -170.105 -11.788 88.4769 -35.3249 20.3594 -2.21295 60.5285 10.2039 19.286 61.5951 36.5955 2.16981 -175.843 33.8816 89.173 -23.2418 2.26449 -4.0213 68.4287 -2.82986 -1.48443 46.5261 1.57 4.55519 -1.30095 7.99117 -89.3261 10.9093 -2.2783 1.5578 -0.760785 -2.20753 1.65657 -23.3087 -2.64114 0.800797 -3.29608 -2.64114 0.800792 79.797 -56.9874 -113.557 29.4335 -8.89359 21.6677 -168.967 -41.6592 -157.853 -84.6381 -12.4102 10.3689 -102.08 -41.4859 57.343 -23.9725 3.14159 -6.272 14.9605 3.62407 -67.3968 14.3346 1.25401 4.7568 9.8856 -0.497092 -1.09555 0.414832 -0.265875 -0.812593 
-250.428 86.954 -251.428 93.0608 -27.3796 91.288 -171.395 -9.29113 94.0352 -39.5876 24.14 0.640136 48.7705 -6.91867 -0.403266 64.1357 45.6499 12.6477 -177.492 36.4355 90.6908 -32.0472 0.360611 -2.43511 61.7609 -0.557005 -0.178106 50.3847 1.21857 -1.02507 -1.79411 7.68232 -89.9655 11.5247 -3.55303 0.437314 -0.141476 -3.53031 0.593451 -22.7155 -3.52 -0.652113 -2.7028 -3.52001 -0.652122 79.4393 -57.4373 -113.888 25.797 -11.78 15.8575 -122.81 -63.1124 -121.449 -93.1098 15.305 -18.3316 -102.101 -41.6542 57.3884 -25.8532 7.75717 -5.96782 12.3486 11.6975 -47.6112 17.1839 1.57345 5.22323 11.2929 0.727281 0.547613 -0.609176 0.587055 0.275037 
-242.621 86.6696 -245.803 92.0513 -30.7458 92.4842 -174.599 -2.30907 94.583 -52.4508 25.0684 1.64542 33.8338 -17.5742 -6.67431 24.5628 -5.90416 5.46287 -178.268 38.2463 94.4559 -42.9616 2.3954 -1.86603 61.3169 -0.0960728 0.0726253 41.6399 1.26286 9.37765 -1.50494 7.77455 -90.363 11.3224 -3.16368 -0.40718 -0.344685 -3.17852 -0.267419 -22.9063 -2.89493 -1.33993 -2.89363 -2.89493 -1.33993 79.2961 -56.9665 -114.253 22.8169 -13.1343 8.46607 -23.0588 -32.935 -47.4266 -47.014 22.7351 -55.9977 -104.526 -42.1906 53.9242 -26.0374 8.55304 -3.55921 5.29308 12.9525 -30.4682 15.6876 1.42753 5.16071 14.1272 1.91244 2.80231 -1.03585 1.11501 -0.552527 
-236.032 86.9601 -240.863 94.9708 -35.1896 94.9006 -174.805 10.2587 94.4874 -74.0159 17.9037 0.940334 36.4912 -15.3633 -4.4638 22.9223 -8.09661 6.01515 -177.207 33.6593 98.4498 -49.0312 1.93574 -3.29044 68.4333 -2.78048 -1.49078 31.3917 -0.261015 10.6399 -0.922558 8.14325 -90.4764 10.5805 -2.0564 -0.761132 -1.08907 -2.08791 -0.669866 -23.6319 -1.73259 -1.34409 -3.61927 -1.73259 -1.34409 78.3724 -54.8379 -116.329 21.1188 -12.7689 0.857358 -2.91794 -7.61727 -52.2174 -23.4328 1.93927 -20.5213 -105.538 -43.5492 53.0745 -27.5602 7.77086 0.942847 3.30302 14.8024 -22.3898 13.3859 1.54045 7.31165 15.1679 2.29477 3.92978 -0.732227 1.15574 -0.509283 
-229.673 89.4653 -235.347 93.9661 -38.0514 93.5841 -173.804 26.7939 95.7584 -86.0375 17.5785 0.201247 37.1957 -15.3998 -2.18364 27.3733 -2.17947 4.01728 -176.512 27.082 99.1745 -46.1544 1.64719 -4.02957 71.2963 -4.26208 -2.17439 30.8148 -0.44321 12.7195 -0.359686 8.14725 -90.4195 10.5741 -0.909224 -0.753228 -1.09668 -0.941507 -0.712488 -23.6318 -0.640819 -0.99166 -3.61919 -0.640814 -0.99166 79.9508 -52.0574 -115.16 19.3407 -12.8258 -5.86671 -5.0252 -8.03934 -65.7829 -21.9672 -0.462724 -2.91854 -105.127 -43.6632 53.7451 -29.9145 7.74248 7.02243 2.26679 13.7191 -20.6726 15.8684 2.02278 8.75254 15.5363 1.24974 3.75917 -0.624008 0.196362 0.356648 
-223.693 93.4597 -229.504 92.9096 -38.9055 88.5721 -170.976 39.5072 91.8737 -87.8241 16.1925 -0.30377 40.9666 -13.3717 -1.12362 31.4296 2.70992 4.1053 -177.958 17.342 95.1629 -37.24 -2.67967 -4.3291 69.2346 -3.81859 -2.04067 32.8253 -0.071496 11.4314 -0.038442 7.94109 -89.8852 10.9934 -0.0234306 0.228379 -0.677552 -0.0133633 0.229187 -23.2127 -0.090989 0.210778 -3.20008 -0.0910015 0.210779 82.6778 -48.8193 -112.338 20.9859 -11.2298 -9.00377 -9.97481 -0.534704 -78.819 -19.2476 -0.873611 0.181822 -103.143 -42.9791 56.409 -33.0602 8.45023 13.763 2.80344 15.8156 -22.08 13.1184 1.74938 9.11004 12.7954 -0.322628 3.57413 -0.328665 -1.20513 0.0459622 
-217.592 98.7446 -223.515 95.2874 -41.955 85.4249 -165.977 43.1814 87.3367 -80.4023 18.4824 -2.37857 44.0769 -11.5968 1.41818 32.1493 3.78992 -0.284469 -179.174 6.84804 90.3049 -27.9655 -8.00417 -5.28748 56.6284 0.0668188 0.186602 32.5538 -0.127744 12.0585 0.504778 7.9575 -89.2593 10.9493 1.34782 1.34571 -0.721603 1.40571 1.28509 -23.254 0.881129 1.68852 -3.24133 0.881109 1.6885 85.2477 -46.3189 -109.256 23.3774 -11.021 -8.47604 -9.79309 4.08131 -89.6764 -17.7323 -1.16316 2.54095 -100.941 -41.6781 59.2063 -36.4601 8.90334 19.1218 2.83162 18.6478 -21.9056 10.8737 1.3512 7.99903 8.54069 -2.07516 2.97702 0.464414 -2.69693 -1.07299 
